# xmcd
#
# Track frame offsets:
#	150
#	15918
#	33398
#	51619
#	76008
#	87891
#	101428
#	113789
#	130294
#	146405
#	156260
#	171891
#	185012
#	201111
#	212924
#	230471
#	241104
#	254762
#	269231
#	283109
#
# Disc length: 4021 seconds
#
# Revision: 0
# Processed by: cddbd v1.5.2PL0 Copyright (c) Steve Scherf et al.
# Submitted via: audiograbber 1.83.01
#
DISCID=220fb314
DTITLE=Dolly Parton/Linda Ronstadt/Emmylou Harris - The Complete Trio Collectio
DTITLE=n (Deluxe) CD3
DYEAR=2016
DGENRE=Country
TTITLE0=Wildflowers (Alternate Take 1986)
TTITLE1=Waltz Across Texas Tonight (Unreleased 1994)
TTITLE2=Lover's Return (Linda Solo
TTITLE3=Softly And Tenderly (Unreleased 1994)
TTITLE4=Pleasant As May (Unreleased 1986)
TTITLE5=My Dear Companion (Alternate Take 1986)
TTITLE6=My Blue Tears (Unreleased 1998)
TTITLE7=Making Plans (Alternate Take 1986)
TTITLE8=I've Had Enough (Alternate Mix 1986)
TTITLE9=Grey Funnel Line (Unreleased 1986)
TTITLE10=You Don't Knock (Unreleased 1986)
TTITLE11=Where Will The Words Come From (Unreleased 1985)
TTITLE12=Do I Ever Cross Your Mind (Dolly Lead)
TTITLE13=Are You Tired Of Me (Unreleased 1986)
TTITLE14=Even Cowgirls Get The Blues
TTITLE15=Mr. Sandman
TTITLE16=Handful Of Dust (Unreleased 1993)
TTITLE17=Calling My Children Home (Unreleased Acapella Version 1986)
TTITLE18=In A Deep Sleep (Unreleased 1986)
TTITLE19=Farther Along (Alternate Mix 1986)
EXTD=
EXTT0=
EXTT1=
EXTT2=
EXTT3=
EXTT4=
EXTT5=
EXTT6=
EXTT7=
EXTT8=
EXTT9=
EXTT10=
EXTT11=
EXTT12=
EXTT13=
EXTT14=
EXTT15=
EXTT16=
EXTT17=
EXTT18=
EXTT19=
PLAYORDER=
